<svg width="24" height="24" viewBox="0 0 24 24" fill="none" xmlns="http://www.w3.org/2000/svg">
<mask id="mask0_1600_31592" style="mask-type:alpha" maskUnits="userSpaceOnUse" x="6" y="9" width="12" height="6">
<path d="M12.0008 13.2981L15.959 9.34031C16.2323 9.06696 16.6755 9.06698 16.9489 9.34036C17.2223 9.61374 17.2222 10.057 16.9489 10.3303L12.7059 14.5729C12.6134 14.6654 12.5033 14.7391 12.3824 14.7892C12.2615 14.8394 12.1318 14.8652 12.0008 14.8652C11.8698 14.8652 11.7401 14.8394 11.6191 14.7892C11.4983 14.7391 11.3885 14.6658 11.296 14.5732L7.0527 10.3303C6.77932 10.057 6.7793 9.61374 7.05266 9.34036C7.32601 9.06698 7.76923 9.06696 8.04261 9.34031L12.0008 13.2981Z" fill="black"/>
</mask>
<g mask="url(#mask0_1600_31592)">
<path d="M0 0H24V24H0V0Z" fill="#E42313"/>
</g>
</svg>
