<svg width="21" height="22" viewBox="0 0 21 22" fill="none" xmlns="http://www.w3.org/2000/svg">
<mask id="mask0_1713_24115" style="mask-type:alpha" maskUnits="userSpaceOnUse" x="2" y="4" width="17" height="14">
<path d="M15.8185 16.6174C15.9228 16.687 16.0359 16.7218 16.1576 16.7218C16.2533 16.7218 16.3576 16.7044 16.4446 16.6522C16.6446 16.5479 16.7663 16.3392 16.7663 16.1131V4.75655C16.7663 4.53046 16.6446 4.32176 16.4446 4.21741C16.2446 4.10437 16.0011 4.12176 15.8185 4.2435L15.0359 4.76524C12.6098 6.39133 9.78369 7.2435 6.86195 7.2435L5.31522 7.2435C4.46912 7.2435 3.65768 7.57961 3.05939 8.1779C2.46111 8.77618 2.125 9.58762 2.125 10.4337C2.125 11.2798 2.46111 12.0913 3.05939 12.6895C3.65768 13.2878 4.46912 13.6239 5.31522 13.6239H6.28831C6.34812 14.1731 6.48909 14.7115 6.70758 15.2213C7.00639 15.9185 7.44391 16.5477 7.99354 17.0704C8.23713 17.3021 8.62241 17.2925 8.8541 17.0489C9.08578 16.8053 9.07613 16.42 8.83255 16.1883C8.40257 15.7794 8.0603 15.2872 7.82654 14.7418C7.67419 14.3863 7.57001 14.013 7.51604 13.6318C10.2044 13.7505 12.7913 14.5993 15.0359 16.0957L15.8185 16.6174ZM6.25326 12.4065H5.31522C4.79199 12.4065 4.2902 12.1987 3.92022 11.8287C3.55024 11.4587 3.34239 10.9569 3.34239 10.4337C3.34239 9.91049 3.55024 9.4087 3.92022 9.03872C4.2902 8.66875 4.79199 8.46089 5.31522 8.46089H6.25326V12.4065ZM7.47283 12.4175V8.45212C10.3503 8.34741 13.1234 7.46919 15.5489 5.89568V14.9739C13.1234 13.4004 10.3503 12.5222 7.47283 12.4175Z" fill="black"/>
<path d="M18.2228 8.79242C18.559 8.79242 18.8315 9.06495 18.8315 9.40112V11.4663C18.8315 11.8025 18.559 12.075 18.2228 12.075C17.8867 12.075 17.6141 11.8025 17.6141 11.4663V9.40112C17.6141 9.06495 17.8867 8.79242 18.2228 8.79242Z" fill="black"/>
</mask>
<g mask="url(#mask0_1713_24115)">
<path d="M0.0439453 0.25708H20.9135V21.1266H0.0439453V0.25708Z" fill="#1A1A1A"/>
</g>
</svg>
