<svg width="24" height="25" viewBox="0 0 24 25" fill="none" xmlns="http://www.w3.org/2000/svg">
<mask id="mask0_2871_46606" style="mask-type:alpha" maskUnits="userSpaceOnUse" x="6" y="6" width="12" height="12">
<path d="M7.13133 6.40643C6.63704 6.40643 6.23633 6.80713 6.23633 7.30143V13.9514C6.23633 14.4457 6.63703 14.8464 7.13133 14.8464H13.7813C14.2756 14.8464 14.6763 14.4457 14.6763 13.9514V7.30143C14.6763 6.80715 14.2756 6.40643 13.7813 6.40643H7.13133ZM7.07633 7.30143C7.07633 7.27106 7.10095 7.24643 7.13133 7.24643H13.7813C13.8117 7.24643 13.8363 7.27105 13.8363 7.30143V13.9514C13.8363 13.9818 13.8117 14.0064 13.7813 14.0064H7.13133C7.10095 14.0064 7.07633 13.9818 7.07633 13.9514V7.30143Z" fill="black"/>
<path d="M15.5626 9.49394C15.3306 9.49394 15.1426 9.68198 15.1426 9.91394C15.1426 10.1459 15.3306 10.3339 15.5626 10.3339H16.8688C16.8992 10.3339 16.9238 10.3586 16.9238 10.3889V17.0389C16.9238 17.0693 16.8992 17.0939 16.8688 17.0939H10.2188C10.1884 17.0939 10.1638 17.0693 10.1638 17.0389V15.7327C10.1638 15.5007 9.97579 15.3127 9.74383 15.3127C9.51187 15.3127 9.32383 15.5007 9.32383 15.7327V17.0389C9.32383 17.5332 9.72453 17.9339 10.2188 17.9339H16.8688C17.3631 17.9339 17.7638 17.5332 17.7638 17.0389V10.3889C17.7638 9.89465 17.3631 9.49394 16.8688 9.49394H15.5626Z" fill="black"/>
</mask>
<g mask="url(#mask0_2871_46606)">
<path d="M4.7998 4.97015H19.1998V19.3702H4.7998V4.97015Z" fill="#1A1A1A"/>
</g>
<rect x="0.5" y="0.670166" width="23" height="23" rx="11.5" stroke="#1A1A1A"/>
</svg>
