<svg width="24" height="25" viewBox="0 0 24 25" fill="none" xmlns="http://www.w3.org/2000/svg">
<rect width="24" height="24" transform="translate(0 0.170166)" fill="white"/>
<mask id="mask0_2871_46605" style="mask-type:alpha" maskUnits="userSpaceOnUse" x="6" y="8" width="12" height="9">
<path d="M7.36883 8.18768C6.74337 8.18768 6.23633 8.69472 6.23633 9.32018V15.0202C6.23633 15.6456 6.74337 16.1527 7.36883 16.1527H16.6313C17.2568 16.1527 17.7638 15.6456 17.7638 15.0202V9.32018C17.7638 8.69472 17.2568 8.18768 16.6313 8.18768H7.36883ZM7.07633 9.53045L9.57854 11.2559L8.15247 12.5743C7.98214 12.7317 7.97172 12.9975 8.12918 13.1678C8.28664 13.3381 8.55236 13.3485 8.72269 13.1911L10.2873 11.7447L11.1123 12.3136C11.3733 12.4937 11.6829 12.5902 12.0001 12.5902C12.3172 12.5902 12.627 12.4936 12.888 12.3135L13.7129 11.7447L15.2775 13.1911C15.4478 13.3485 15.7135 13.3381 15.871 13.1678C16.0284 12.9975 16.018 12.7317 15.8477 12.5743L14.4216 11.2559L16.9238 9.53044V15.0202C16.9238 15.1817 16.7929 15.3127 16.6313 15.3127H7.36883C7.20728 15.3127 7.07633 15.1817 7.07633 15.0202V9.53045ZM16.1732 9.02768L12.4108 11.6222C12.29 11.7056 12.1468 11.7502 12.0001 11.7502C11.8534 11.7502 11.7099 11.7054 11.5892 11.6221L7.82692 9.02768H16.1732Z" fill="black"/>
</mask>
<g mask="url(#mask0_2871_46605)">
<path d="M4.7998 4.97015H19.1998V19.3702H4.7998V4.97015Z" fill="#1A1A1A"/>
</g>
<rect x="0.5" y="0.670166" width="23" height="23" rx="11.5" stroke="#1A1A1A"/>
</svg>
