<svg width="24" height="25" viewBox="0 0 24 25" fill="none" xmlns="http://www.w3.org/2000/svg">
<mask id="mask0_2871_46603" style="mask-type:alpha" maskUnits="userSpaceOnUse" x="9" y="7" width="6" height="10">
<path d="M14.2262 11.1082V12.5962H12.6722V16.6702H10.6742V12.5962H9.53418V11.1082H10.6742V10.2322C10.6742 9.45217 10.9262 8.83417 11.4362 8.36617C11.9402 7.89817 12.6062 7.67017 13.4282 7.67017C13.8482 7.67017 14.1962 7.71217 14.4662 7.80217V9.36817C14.1962 9.26017 13.9382 9.20617 13.6922 9.20617C13.0082 9.20617 12.6662 9.58417 12.6662 10.3402V11.1082H14.2202H14.2262Z" fill="#1A1A1A"/>
</mask>
<g mask="url(#mask0_2871_46603)">
<path d="M4.7998 4.97015H19.1998V19.3702H4.7998V4.97015Z" fill="#1A1A1A"/>
</g>
<rect x="0.5" y="0.670166" width="23" height="23" rx="11.5" stroke="#1A1A1A"/>
</svg>
