<svg width="40" height="41" viewBox="0 0 40 41" fill="none" xmlns="http://www.w3.org/2000/svg">
<mask id="mask0_2504_40494" style="mask-type:alpha" maskUnits="userSpaceOnUse" x="15" y="12" width="10" height="16">
<path d="M23.7106 18.3892V20.8692H21.1206V27.6592H17.7906V20.8692H15.8906V18.3892H17.7906V16.9292C17.7906 15.6292 18.2106 14.5992 19.0606 13.8192C19.9006 13.0392 21.0106 12.6592 22.3806 12.6592C23.0806 12.6592 23.6606 12.7292 24.1106 12.8792V15.4892C23.6606 15.3092 23.2306 15.2192 22.8206 15.2192C21.6806 15.2192 21.1106 15.8492 21.1106 17.1092V18.3892H23.7006H23.7106Z" fill="#1A1A1A"/>
</mask>
<g mask="url(#mask0_2504_40494)">
<path d="M8 8.15918H32V32.1592H8V8.15918Z" fill="#1A1A1A"/>
</g>
<rect x="0.5" y="0.65918" width="39" height="39" rx="19.5" stroke="#1A1A1A"/>
</svg>
