<svg width="22" height="22" viewBox="0 0 22 22" fill="none" xmlns="http://www.w3.org/2000/svg">
<mask id="mask0_1713_24107" style="mask-type:alpha" maskUnits="userSpaceOnUse" x="4" y="3" width="14" height="17">
<path d="M11.0006 6.19286C10.0176 6.19286 9.07484 6.58337 8.37973 7.27847C7.68462 7.97358 7.29411 8.91635 7.29411 9.89938C7.29411 10.8824 7.68462 11.8252 8.37973 12.5203C9.07484 13.2154 10.0176 13.6059 11.0006 13.6059C11.9837 13.6059 12.9264 13.2154 13.6215 12.5203C14.3167 11.8252 14.7072 10.8824 14.7072 9.89938C14.7072 8.91635 14.3167 7.97358 13.6215 7.27847C12.9264 6.58337 11.9837 6.19286 11.0006 6.19286ZM9.24056 8.1393C9.70736 7.6725 10.3405 7.41025 11.0006 7.41025C11.6608 7.41025 12.2939 7.6725 12.7607 8.1393C13.2275 8.6061 13.4898 9.23922 13.4898 9.89938C13.4898 10.5595 13.2275 11.1927 12.7607 11.6595C12.2939 12.1263 11.6608 12.3885 11.0006 12.3885C10.3405 12.3885 9.70736 12.1263 9.24056 11.6595C8.77375 11.1927 8.51151 10.5595 8.51151 9.89938C8.51151 9.23922 8.77375 8.6061 9.24056 8.1393Z" fill="black"/>
<path d="M11.0006 3.09503C9.19601 3.09503 7.4653 3.81192 6.18924 5.08798C4.91317 6.36404 4.19629 8.09475 4.19629 9.89938C4.19629 12.8086 5.47553 15.0676 6.87915 16.6672C8.27944 18.2631 9.82747 19.2321 10.4425 19.5836C10.6123 19.6807 10.8047 19.7318 11.0003 19.7318C11.1959 19.7318 11.388 19.6808 11.5579 19.5838C12.173 19.2325 13.7213 18.2638 15.1217 16.668C16.5256 15.0684 17.805 12.8093 17.805 9.89938C17.805 8.09475 17.0881 6.36404 15.812 5.08798C14.536 3.81192 12.8053 3.09503 11.0006 3.09503ZM7.05006 5.9488C8.09782 4.90105 9.51888 4.31242 11.0006 4.31242C12.4824 4.31242 13.9035 4.90105 14.9512 5.9488C15.999 6.99656 16.5876 8.41763 16.5876 9.89938C16.5876 12.4279 15.481 14.4131 14.2067 15.865C12.9633 17.2819 11.5831 18.1629 11.0003 18.5001C10.4173 18.1624 9.03744 17.2811 7.79422 15.8643C6.52011 14.4122 5.41368 12.4272 5.41368 9.89938C5.41368 8.41763 6.0023 6.99656 7.05006 5.9488Z" fill="black"/>
</mask>
<g mask="url(#mask0_1713_24107)">
<path d="M0.56543 0.978638H21.435V21.8482H0.56543V0.978638Z" fill="#1A1A1A"/>
</g>
</svg>
