<svg width="40" height="41" viewBox="0 0 40 41" fill="none" xmlns="http://www.w3.org/2000/svg">
<mask id="mask0_3202_509" style="mask-type:alpha" maskUnits="userSpaceOnUse" x="13" y="13" width="14" height="14">
<path d="M24.5013 16.4593C24.5013 16.9992 24.0642 17.4386 23.522 17.4386C22.9798 17.4386 22.5427 16.9992 22.5427 16.4593C22.5427 15.9194 22.9798 15.48 23.522 15.48C24.0642 15.48 24.5013 15.9171 24.5013 16.4593Z" fill="#333333"/>
<path d="M19.9111 16.4593C17.9175 16.4593 16.3001 18.0766 16.3001 20.0702C16.3001 22.0639 17.9175 23.6812 19.9111 23.6812C21.9047 23.6812 23.522 22.0639 23.522 20.0702C23.522 18.0766 21.9047 16.4593 19.9111 16.4593ZM19.9111 22.3677C18.642 22.3677 17.6136 21.3393 17.6136 20.0702C17.6136 18.8012 18.642 17.7728 19.9111 17.7728C21.1802 17.7728 22.2085 18.8012 22.2085 20.0702C22.2085 21.3393 21.1802 22.3677 19.9111 22.3677Z" fill="#333333"/>
<path d="M16.9732 13.1592H22.8489C25.0435 13.1592 26.8221 14.9378 26.8221 17.1324V23.0081C26.8221 25.2027 25.0435 26.9813 22.8489 26.9813H16.9732C14.7786 26.9813 13 25.2027 13 23.0081V17.1324C13 14.9378 14.7786 13.1592 16.9732 13.1592ZM22.8746 25.6398C24.3143 25.6398 25.4829 24.4712 25.4829 23.0315V17.1067C25.4829 15.667 24.3143 14.4984 22.8746 14.4984H16.9498C15.5101 14.4984 14.3415 15.667 14.3415 17.1067V23.0315C14.3415 24.4712 15.5101 25.6398 16.9498 25.6398H22.8746Z" fill="#333333"/>
</mask>
<g mask="url(#mask0_3202_509)">
<path d="M8 8.15918H32V32.1592H8V8.15918Z" fill="#1A1A1A"/>
</g>
<rect x="0.5" y="0.65918" width="39" height="39" rx="19.5" stroke="#1A1A1A"/>
</svg>
