<svg width="782" height="328" viewBox="0 0 782 328" fill="none" xmlns="http://www.w3.org/2000/svg">
<path d="M342.768 327.99C435.888 327.99 511.376 254.731 511.376 164.36C511.376 73.9901 435.888 0.730469 342.768 0.730469C249.649 0.730469 174.16 73.9901 174.16 164.36C174.16 254.731 249.649 327.99 342.768 327.99Z" fill="#F7D2D5"/>
<path d="M6.50001 328H785.5C789.09 328 792 325.09 792 321.5C792 317.91 789.09 315 785.5 315H403.471H6.5C2.91015 315 0 317.91 0 321.5C0 325.09 2.91016 328 6.50001 328Z" fill="#E8E8E8"/>
<path d="M146.449 87.1243C150.247 87.1034 153.933 86.6279 156.535 83.0142C161.64 75.9166 169.434 69.5473 178.175 76.7632C183.215 80.9243 179.425 89.4879 183.763 93.6049C187.599 97.2465 192.479 96.6458 194.441 102.69C197.329 111.583 188.23 119.374 185.309 127.066C182.859 133.518 188.371 135.977 190.847 141.006C192.756 144.882 191.774 149.036 189.695 152.742C186.026 159.279 177.893 164.539 179.776 173.001C181.349 180.063 182.811 186.358 176.389 191.71C171.987 195.379 163.82 198.724 164.442 205.515C164.661 207.918 166.375 209.966 166.846 212.337C167.589 216.087 165.087 219.736 162.181 222.31C155.567 228.167 149.76 233.69 144.805 241.056C142.687 244.204 134.215 251.313 137.601 255.618C131.445 247.795 124.939 240.207 119.344 231.983C114.743 225.219 107.807 215.324 112.53 206.993C113.997 204.402 116.729 202.47 117.477 199.603C118.828 194.426 113.586 189.627 111.638 185.222C108.579 178.308 110.823 170.275 116.213 165.084C118.763 162.628 121.528 159.928 121.904 156.46C122.312 152.675 119.867 149.145 118.756 145.652C117.733 142.432 117.095 139.009 116.722 135.664C116.459 133.303 116.356 130.886 116.93 128.576C118.017 124.183 122.095 121.743 125.111 118.625C132.293 111.205 128.517 102.482 131.655 93.8577C134.47 86.1176 140.591 87.1591 146.447 87.1266L146.449 87.1243Z" fill="#1E8C67"/>
<path d="M138.939 253.463C137.104 228.197 138.789 202.729 142.673 177.845C146.379 154.108 151.243 130.287 158.617 107.785C161.054 100.35 163.79 93.0522 166.897 85.9873" stroke="#3BBC8E" stroke-width="1.02188" stroke-miterlimit="10"/>
<path d="M183.498 119.869C173.147 124.259 163.275 130.273 154.211 137.711C151.91 139.598 150.631 140.175 148.714 142.603" stroke="#3BBC8E" stroke-width="1.02188" stroke-miterlimit="10"/>
<path d="M143.805 169.672C153.739 161.959 165.005 156.733 176.676 154.426" stroke="#3BBC8E" stroke-width="1.02188" stroke-miterlimit="10"/>
<path d="M139.878 202.265C149.123 192.638 160.393 185.842 172.342 182.687" stroke="#3BBC8E" stroke-width="1.02188" stroke-miterlimit="10"/>
<path d="M149.225 141.77C148.504 128.403 145.735 115.198 141.098 103.014" stroke="#3BBC8E" stroke-width="1.02188" stroke-miterlimit="10"/>
<path d="M143.933 168.57C139.236 156.494 132.45 145.599 124.132 136.777" stroke="#3BBC8E" stroke-width="1.02188" stroke-miterlimit="10"/>
<path d="M139.262 203.193C138.613 199.463 137.475 195.856 135.901 192.544C134.071 188.694 131.677 185.28 129.239 181.951C127.483 179.555 125.697 177.19 123.882 174.856" stroke="#3BBC8E" stroke-width="1.02188" stroke-miterlimit="10"/>
<path d="M99.8126 141.191C97.0545 141.685 94.3131 141.836 91.9111 139.563C87.1955 135.1 80.6324 131.526 75.3218 137.935C72.2577 141.632 76.23 147.333 73.6702 150.903C71.4069 154.06 67.7812 154.278 67.2195 158.928C66.3949 165.766 74.1052 170.196 77.3198 175.383C80.0182 179.734 76.371 182.257 75.2907 186.24C74.459 189.309 75.7639 192.189 77.8002 194.597C81.3925 198.844 88.044 201.569 87.8838 207.96C87.75 213.294 87.5875 218.056 93.0081 221.076C96.7246 223.148 103.125 224.474 103.644 229.484C103.828 231.256 102.877 232.973 102.872 234.754C102.867 237.575 105.202 239.885 107.678 241.362C113.312 244.721 118.312 247.947 122.955 252.626C124.939 254.625 132.102 258.643 130.257 262.219C133.608 255.718 137.245 249.339 140.128 242.622C142.501 237.097 146.12 228.988 141.507 223.579C140.073 221.897 137.817 220.863 136.863 218.884C135.145 215.31 138.261 211.126 139.048 207.667C140.281 202.24 137.506 196.715 132.857 193.674C130.659 192.236 128.266 190.647 127.499 188.181C126.662 185.491 127.934 182.601 128.24 179.917C128.522 177.445 128.498 174.875 128.29 172.4C128.144 170.651 127.874 168.886 127.128 167.285C125.714 164.244 122.408 163.022 119.774 161.166C113.508 156.75 115.001 149.915 111.495 144.081C108.347 138.844 104.057 140.423 99.8054 141.186L99.8126 141.191Z" fill="#5CA35A"/>
<path d="M128.273 265.645C126.673 246.705 122.466 228.212 116.711 210.522C111.22 193.645 104.87 176.905 96.8291 161.56C94.1719 156.49 91.3117 151.572 88.2051 146.889" stroke="#3CBA69" stroke-width="1.02188" stroke-miterlimit="10"/>
<path d="M79.9619 174.677C88.0764 176.163 96.0278 178.928 103.553 182.88C105.463 183.882 106.47 184.091 108.161 185.557" stroke="#3CBA69" stroke-width="1.02188" stroke-miterlimit="10"/>
<path d="M114.923 204.688C106.727 200.68 97.843 198.732 89.001 199.005" stroke="#3CBA69" stroke-width="1.02188" stroke-miterlimit="10"/>
<path d="M121.614 228.055C113.701 222.52 104.631 219.414 95.4873 219.106" stroke="#3CBA69" stroke-width="1.02188" stroke-miterlimit="10"/>
<path d="M107.688 185.031C106.659 175.052 107.153 164.849 109.136 155.081" stroke="#3CBA69" stroke-width="1.02188" stroke-miterlimit="10"/>
<path d="M114.701 203.896C116.742 194.199 120.457 185.018 125.536 177.109" stroke="#3CBA69" stroke-width="1.02188" stroke-miterlimit="10"/>
<path d="M122.174 228.635C122.215 225.776 122.632 222.922 123.401 220.217C124.297 217.068 125.657 214.146 127.059 211.281C128.069 209.216 129.105 207.17 130.165 205.144" stroke="#3CBA69" stroke-width="1.02188" stroke-miterlimit="10"/>
<path d="M158.886 260.943H102.531L112.419 315.674H148.999L158.886 260.943Z" fill="#563421"/>
<path d="M165.785 245.58H95.6328V260.942H165.785V245.58Z" fill="#3C2415"/>
<path opacity="0.1" d="M103.843 268.201H157.574L158.886 260.943H102.531L103.843 268.201Z" fill="#231F20"/>
<path d="M554.889 140.004H552.311V224.47H554.889V140.004Z" fill="#231F20"/>
<path d="M575.168 217.984H532.03V224.47H575.168V217.984Z" fill="#231F20"/>
<path d="M538.166 211.499H569.026C570.279 211.499 571.297 212.487 571.297 213.703V217.984H535.896V213.703C535.896 212.487 536.914 211.499 538.166 211.499Z" fill="#231F20"/>
<path d="M581.393 161.218H525.334L539.399 107.838H567.325L581.393 161.218Z" fill="#F4C990"/>
<path d="M562.507 161.218H544.689L548.205 107.838H558.989L562.507 161.218Z" fill="#F2DFBD"/>
<path d="M612.758 224.468H518.512V231.976H612.758V224.468Z" fill="#3C2415"/>
<path d="M612.76 284.532H518.514V292.04H612.76V284.532Z" fill="#3C2415"/>
<path d="M612.758 231.976H518.512V255.523H612.758V231.976Z" fill="#3C2415"/>
<path d="M526.485 231.976H518.512V315.247H526.485V231.976Z" fill="#3C2415"/>
<path d="M612.759 231.976H604.786V315.247H612.759V231.976Z" fill="#3C2415"/>
<path d="M601.504 235.159H529.767V251.996H601.504V235.159Z" fill="#603913"/>
<path d="M599.314 175.564C600.005 174.402 599.764 173.01 598.776 172.456C597.787 171.902 596.425 172.395 595.733 173.558C595.041 174.721 595.282 176.112 596.271 176.666C597.26 177.22 598.622 176.727 599.314 175.564Z" fill="#00A09D"/>
<path d="M597.538 175.54C597.244 175.48 596.948 175.399 596.701 175.146C596.226 174.661 596.209 173.872 596.589 173.33L597.167 172.504C596.706 172.694 596.336 173.044 595.98 173.388C594.502 174.805 595.647 177.495 597.858 176.809C598.267 176.681 598.917 176.194 598.398 175.821C598.147 175.64 597.844 175.6 597.54 175.538L597.538 175.54Z" fill="#1D7E8E"/>
<path d="M598.365 182.271C599.582 179.534 598.556 176.472 596.073 175.432C593.59 174.392 590.59 175.767 589.372 178.504C588.155 181.24 589.181 184.302 591.664 185.343C594.147 186.383 597.147 185.008 598.365 182.271Z" fill="#00A09D"/>
<path d="M595.825 184.741C595.644 184.938 595.314 185.061 595.111 185.13C594.786 185.242 594.458 185.353 594.116 185.409C593.096 185.578 591.59 185.344 590.708 184.824C588.679 183.627 588.576 180.42 589.413 178.536C590.632 175.799 593.631 174.424 596.114 175.465C595.78 175.324 594.793 175.79 594.475 175.931C594.014 176.14 593.586 176.418 593.23 176.773C592.596 177.404 592.243 178.232 592.082 179.09C591.872 180.218 592.154 180.995 592.845 181.93C593.395 182.674 594.119 183.298 594.948 183.739C595.242 183.894 595.887 184.008 595.95 184.377C595.973 184.52 595.921 184.641 595.828 184.743L595.825 184.741Z" fill="#1D7E8E"/>
<path d="M584.114 187.085C586.446 187.085 588.335 185.251 588.335 182.989C588.335 180.727 586.446 178.893 584.114 178.893C581.783 178.893 579.894 180.727 579.894 182.989C579.894 185.251 581.783 187.085 584.114 187.085Z" fill="#00A09D"/>
<path d="M582.794 177.845C583.226 178.831 582.751 179.969 581.735 180.389C580.719 180.809 579.546 180.348 579.113 179.362C578.68 178.376 579.156 177.237 580.172 176.817C581.188 176.397 582.361 176.859 582.794 177.845Z" fill="#00A09D"/>
<path d="M590.914 199.084C594.669 199.084 597.714 195.343 597.714 190.729C597.714 186.115 594.669 182.374 590.914 182.374C587.159 182.374 584.114 186.115 584.114 190.729C584.114 195.343 587.159 199.084 590.914 199.084Z" fill="#00A09D"/>
<path d="M590.914 199.084C587.159 199.084 584.114 195.342 584.114 190.729C584.114 186.115 587.159 182.374 590.914 182.374C586.313 187.393 586.664 196.11 590.914 199.084Z" fill="#1D7E8E"/>
<path d="M586.376 185.538C586.398 185.717 586.336 185.893 586.271 186.06C586.176 186.31 586.068 186.561 585.891 186.765C585.145 187.616 583.482 187.199 582.595 186.823C581.556 186.385 580.619 185.587 580.267 184.515C579.832 183.191 579.89 181.477 580.843 180.352C581.109 180.038 581.491 179.8 581.909 179.776C581.613 179.793 581.998 181.337 582.038 181.537C582.191 182.27 582.5 183.028 583.016 183.592C583.575 184.202 584.23 184.341 585.009 184.513C585.588 184.64 586.297 184.872 586.374 185.538H586.376Z" fill="#1D7E8E"/>
<path d="M581.326 179.855C580.764 180.474 580.293 180.553 579.636 180.008C579.127 179.585 578.94 178.929 579.048 178.301C579.127 177.837 579.528 177.143 579.98 176.927C580.329 176.76 580.826 177.034 581.144 176.837C580.267 177.382 579.863 178.549 580.805 179.289C580.965 179.414 581.154 179.5 581.318 179.618C581.35 179.639 581.378 179.664 581.39 179.699C581.407 179.755 581.366 179.813 581.326 179.857V179.855Z" fill="#1D7E8E"/>
<path d="M599.775 224.467H580.17L577.992 203.541H601.952L599.775 224.467Z" fill="#F4A49B"/>
<path d="M602.694 195.655H577.257V203.541H602.694V195.655Z" fill="#EF877F"/>
<path d="M264.294 272.641H416.37V212.657L264.294 212.657V272.641Z" fill="#66A5AF"/>
<path d="M197.297 242.467H323.15C333.468 242.467 341.833 233.502 341.833 222.445V136.369C341.833 125.31 333.468 116.348 323.15 116.348C323.15 116.348 288.346 120.676 261.028 120.676C233.71 120.676 197.297 116.348 197.297 116.348C186.979 116.348 178.614 125.312 178.614 136.369V222.445C178.614 233.504 186.979 242.467 197.297 242.467Z" fill="#F1F2F2"/>
<path d="M218.26 273.968H300.318C323.08 273.968 341.441 253.774 341.109 229.104C341.109 229.104 341.415 158.608 341.142 142.224C341.109 229.104 177.469 229.104 178.628 142.845C178.306 164.363 177.469 229.104 177.469 229.104C177.137 253.777 195.497 273.968 218.26 273.968Z" fill="#A7A9AC"/>
<path d="M322.64 116.346H197.231C197.231 116.346 225.085 127.72 260.725 127.72C296.366 127.72 322.64 116.346 322.64 116.346Z" fill="#E6E7E8"/>
<path d="M506.515 315.511C508.893 314.811 510.2 312.194 509.469 309.601L499.548 269.785L486.135 273.733L500.676 312.188C501.551 314.739 504.137 316.21 506.515 315.509V315.511Z" fill="#231F20"/>
<path d="M178.043 315.511C175.665 314.811 174.357 312.194 175.088 309.601L185.01 269.785L198.423 273.733L183.881 312.188C183.007 314.739 180.421 316.21 178.043 315.509V315.511Z" fill="#231F20"/>
<path d="M360.173 241.141H486.711C497.084 241.141 505.495 232.176 505.495 221.119V135.043C505.495 123.984 497.084 115.021 486.711 115.021C486.711 115.021 451.719 119.35 424.252 119.35C396.786 119.35 360.175 115.021 360.175 115.021C349.802 115.021 341.392 123.986 341.392 135.043V221.119C341.392 232.178 349.802 241.141 360.175 241.141H360.173Z" fill="#F1F2F2"/>
<path d="M381.828 272.641H464.33C487.217 272.641 505.676 252.448 505.343 227.778C505.343 227.778 505.649 157.282 505.377 140.897C505.343 227.778 340.815 227.778 341.981 141.519C341.656 163.037 340.815 227.778 340.815 227.778C340.48 252.45 358.941 272.641 381.828 272.641Z" fill="#A7A9AC"/>
<path d="M416.372 266.138C383.475 266.112 216.791 266.2 183.894 266.2C183.046 266.2 169.255 252.246 165.797 245.316C162.042 237.798 160.104 230.923 157.934 223.51C154.32 211.161 150.565 193.524 158.137 181.813C161.445 176.696 168.137 173.192 174.014 175.179C182.255 177.967 184.917 186.684 186.127 194.25C189.035 212.446 197.245 231.471 217.183 236.652C228.141 239.501 239.96 238.858 251.234 238.865C252.697 238.865 416.365 239.046 416.365 238.392C416.367 247.64 416.372 256.89 416.372 266.138Z" fill="#E6E7E8"/>
<path d="M412.398 266.138C445.295 266.112 467.998 266.2 500.895 266.2C501.746 266.2 515.534 252.246 518.992 245.316C522.747 237.798 524.685 230.923 526.855 223.51C530.469 211.161 534.224 193.524 526.652 181.813C523.344 176.696 516.652 173.192 510.775 175.179C502.534 177.967 499.872 186.684 498.662 194.25C495.754 212.446 487.544 231.471 467.606 236.652C456.648 239.501 444.827 238.858 433.555 238.865C432.092 238.865 412.406 239.046 412.406 238.392C412.403 247.64 412.398 256.89 412.398 266.138Z" fill="#E6E7E8"/>
<path d="M341.701 212.656C341.701 219.828 349.665 239.861 416.24 239.861C482.815 239.861 490.778 219.828 490.778 212.656C490.778 205.484 457.406 199.672 416.24 199.672C375.074 199.672 341.701 205.484 341.701 212.656Z" fill="#E6E7E8"/>
<path d="M341.701 212.656C352.758 205.851 479.385 205.756 490.781 212.656C490.781 205.484 457.408 199.672 416.242 199.672C375.076 199.672 341.704 205.484 341.704 212.656H341.701Z" fill="#D1D3D4"/>
<path d="M341.832 212.657C341.832 219.829 349.795 239.862 416.37 239.862C482.945 239.862 490.908 219.829 490.908 212.657C482.178 239.862 349.664 239.862 341.829 212.657H341.832Z" fill="#BCBEC0"/>
<path d="M192.177 212.656C192.177 219.828 200.14 239.861 266.715 239.861C333.29 239.861 341.254 219.828 341.254 212.656C341.254 205.484 307.881 199.672 266.715 199.672C225.549 199.672 192.177 205.484 192.177 212.656Z" fill="#E6E7E8"/>
<path d="M192.177 212.656C203.233 205.851 329.86 205.756 341.256 212.656C341.256 205.484 307.884 199.672 266.718 199.672C225.551 199.672 192.179 205.484 192.179 212.656H192.177Z" fill="#D1D3D4"/>
<path d="M192.309 212.657C192.309 219.829 200.273 239.862 266.847 239.862C333.422 239.862 341.386 219.829 341.386 212.657C332.655 239.862 200.141 239.862 192.307 212.657H192.309Z" fill="#BCBEC0"/>
<path d="M486.773 115.019H360.684C360.684 115.019 388.688 126.393 424.522 126.393C460.356 126.393 486.773 115.019 486.773 115.019Z" fill="#E6E7E8"/>
<path d="M184.021 273.968L500.891 273.968V266.2L184.021 266.2V273.968Z" fill="#231F20"/>
<path d="M412.264 192.301C405.051 191.972 397.862 193.097 390.732 194.217C388.481 194.572 386.098 195.785 387.793 198.395C388.722 199.828 390.653 200.248 392.386 200.44C399.834 201.269 407.484 200.352 414.97 200.364" fill="#808285"/>
<path d="M465.324 182.598C466.418 189.088 463.28 198.468 455.979 200.365C453.034 201.131 449.49 200.859 446.452 200.841C442.752 200.82 439.052 200.79 435.352 200.764C428.087 200.713 420.819 200.662 413.553 200.613C408.763 200.581 403.67 200.463 399.674 197.9C394.925 194.856 392.559 189.229 395.716 184.386C398.429 180.225 403.503 177.676 408.345 176.665C416.452 174.969 424.874 177.217 432.936 175.807C434.239 175.579 435.532 175.255 436.81 174.805C444.088 172.244 451.318 168.716 458.746 172.896C462.312 174.902 464.657 178.65 465.324 182.598Z" fill="#6D6E71"/>
<path d="M405.131 168.621C403.92 167.375 403.174 167.132 402.44 168.904C401.594 170.947 401.023 173.172 401.049 175.387C398.012 176.004 395.134 177.354 392.703 179.244C390.834 177.955 388.614 177.143 386.391 176.656C384.472 176.236 384.257 176.971 384.622 178.646C385.077 180.715 385.803 182.712 386.506 184.711C386.946 185.964 387.345 187.228 387.794 188.476C388.112 189.77 388.741 191.004 389.51 191.929C391.63 194.49 395.853 195.977 399.128 196.397C402.832 196.872 406.341 195.954 408.834 193.221C411.073 190.77 412.6 187.425 413.183 184.215C413.516 182.387 413.36 180.434 412.698 178.667C411.955 176.684 410.488 175.241 409.209 173.58C407.904 171.887 406.632 170.159 405.131 168.619V168.621Z" fill="#808285"/>
<path d="M459.862 177.442C466.836 183.886 466.104 191.313 462.252 197.882C457.978 205.167 450.942 210.101 443.093 213.308C433.827 217.098 423.217 219.038 413.292 216.764C411.296 216.308 409.114 215.357 408.526 213.45C406.788 207.809 415.851 207.911 419.085 207.642C425.729 207.092 432.768 207.027 439.228 204.931C446.32 202.63 451.367 197.722 454.914 191.44" fill="#808285"/>
<path d="M464.915 187.826C464.891 184.799 463.828 181.777 461.884 179.407C456.949 173.383 447.343 173.195 440.73 176.461C433.144 180.207 431.942 190.123 434.913 197.111C435.049 197.431 432.257 197.339 432.021 197.355C430.016 197.492 425.864 197.12 425.063 199.505C424.528 201.103 425.627 203.265 427.279 203.782C427.97 203.998 428.711 204 429.437 203.998C434.633 203.991 439.829 204.007 445.025 204.016C449.095 204.023 452.167 203.293 454.604 199.925C455.874 198.171 456.832 196.214 458.185 194.52" fill="#808285"/>
<path d="M403.31 191.988C404.193 191.656 404.67 190.79 404.376 190.053C404.082 189.316 403.128 188.987 402.246 189.319C401.363 189.65 400.886 190.516 401.18 191.254C401.474 191.991 402.428 192.319 403.31 191.988Z" fill="#061F33"/>
<path d="M411.699 176.54C411.935 176.985 412.26 177.366 412.55 177.788C412.698 177.996 412.832 178.219 412.942 178.463C413.051 178.711 413.121 178.959 413.185 179.207C413.307 179.706 413.379 180.209 413.451 180.703C413.525 181.19 413.58 181.71 413.606 182.216C413.668 183.236 413.587 184.261 413.424 185.273C413.252 186.284 412.965 187.274 412.6 188.235C412.213 189.188 411.739 190.109 411.173 190.974C410.599 191.832 409.947 192.646 409.196 193.363C408.451 194.087 407.631 194.727 406.73 195.258C406.273 195.513 405.793 195.74 405.279 195.875C404.77 196.014 404.227 196.051 403.721 195.956C404.763 195.945 405.678 195.467 406.469 194.88C406.868 194.59 407.246 194.261 407.609 193.924C407.789 193.753 407.973 193.588 408.142 193.407C408.319 193.233 408.486 193.052 408.649 192.869C409.301 192.131 409.901 191.352 410.401 190.512C410.912 189.682 411.352 188.808 411.706 187.903C412.423 186.098 412.817 184.171 412.86 182.225C412.875 181.733 412.848 181.26 412.827 180.754C412.808 180.258 412.784 179.766 412.724 179.284C412.695 179.043 412.659 178.801 412.595 178.581C412.53 178.356 412.428 178.133 412.32 177.911C412.103 177.468 411.842 177.02 411.699 176.535V176.54Z" fill="#DA291C"/>
<path d="M340.822 111.856C333.561 114.732 324.405 113.862 317.992 109.435C311.549 104.986 305.638 101.715 297.45 101.479C292.364 101.333 287.596 103.397 282.751 104.575C278.49 105.612 275.237 108.931 270.643 109.544C264.608 110.346 258.409 106.744 255.693 101.451C252.978 96.1579 253.571 89.5706 256.609 84.4445C258.824 80.7032 260.863 77.9106 258.373 73.7402C257.83 72.8309 257.149 71.989 256.776 71.0032C256.425 70.0731 256.372 69.0595 256.413 68.069C256.638 62.6647 260.856 58.6125 263.667 54.1499C264.324 53.1061 264.984 52.0229 265.182 50.8168C265.686 47.7435 263.17 45.0877 261.829 42.2602C257.484 33.1029 264.9 22.6861 272.115 17.1913C276.375 13.9487 281.477 12.6405 286.071 9.9986C288.162 8.79479 290.07 7.30569 292.185 6.14363C295.875 4.11873 299.897 4.03291 303.994 4.58958C315.667 6.17842 328.936 14.4126 331.642 26.2628C333.475 34.2951 330.473 43.6333 338.673 49.2581C341.142 50.9513 344.264 51.9603 345.946 54.398C349.527 59.5774 344.266 67.2526 347.541 72.6199C348.27 73.8167 349.362 74.7584 350.354 75.7604C355.595 81.0558 358.298 88.6219 357.562 95.9283C357.383 97.712 356.996 99.5072 356.09 101.068C354.845 103.211 352.732 104.726 350.669 106.155C347.581 108.293 344.429 110.404 340.923 111.812C340.889 111.826 340.856 111.84 340.822 111.851V111.856Z" fill="#1A1A1A"/>
<path d="M337.076 190.296C336.106 192.931 334.832 195.218 333.573 197.109C326.704 207.419 318.499 214.47 310.36 219.012C303.092 223.071 295.475 222.89 288.042 221.315C282.961 220.239 277.906 216.85 273.006 213.705C267.966 210.469 262.992 206.616 258.293 201.493C254.591 197.457 251.274 192.447 250.71 182.911C250.487 179.161 250.87 175.006 252.206 172.462C253.814 169.398 256.245 169.5 258.413 169.862C270.693 171.908 282.583 180.81 294.949 180.975C301.849 181.067 308.283 177.205 314.916 173.712C320.031 171.017 325.709 168.055 331.037 168.621C335.865 169.134 340.64 180.631 337.079 190.296H337.076Z" fill="#102E5B"/>
<path d="M259.937 167.968C259.638 167.311 259.335 166.638 259.017 165.947C255.695 158.738 253.262 151.144 251.787 143.379C251.254 140.579 250.714 137.515 248.51 135.636C245.46 133.036 239.519 133.37 235.74 133.862C233.976 134.092 232.129 134.683 231.063 136.068C229.297 138.362 229.473 143.541 229.404 146.306C228.981 163.111 242.671 177.002 253.816 188.342C255.962 190.524 258.293 192.733 261.266 193.616C264.239 194.5 268.013 193.582 269.315 190.84C270.269 188.829 269.684 186.465 268.928 184.375C267.628 180.78 265.673 177.489 263.448 174.367C261.945 172.256 260.955 170.194 259.939 167.968H259.937Z" fill="#F8A17A"/>
<path d="M325.441 76.6514C325.895 79.5809 325.551 82.5915 324.227 85.2682C320.654 92.4818 311.808 93.8897 304.349 94.1704C301.588 94.2747 298.811 94.1402 296.077 93.7459C293.641 93.3933 291.471 93.7529 289.009 93.6995C284.143 93.5905 279.306 92.1988 275.195 89.6636C273.194 88.432 271.314 86.8756 270.286 84.802C268.876 81.9537 269.287 78.5881 270.032 75.5125C270.463 73.7358 271.003 71.9637 271.944 70.3841C272.951 68.6932 274.392 67.2575 275.231 65.4831C276.806 62.1477 275.51 58.2486 276.911 54.9782C278.008 52.4151 280.764 49.5251 283.051 47.9223C286.163 45.742 290.181 45.0531 294.009 45.3083C297.838 45.5611 301.545 46.6814 305.195 47.8388C308.068 48.7504 310.537 48.1867 312.645 50.4876C314.315 52.3131 313.732 55.2936 314.265 57.5041C316.06 64.9426 324.229 68.8672 325.438 76.6514H325.441Z" fill="#231F20"/>
<path d="M272.609 109.688C267.734 117.797 262.248 125.579 257.002 133.465C254.074 137.87 251.108 142.346 249.538 147.361C242.308 147.189 235.057 145.705 227.956 144.388C229.096 135.079 234.158 126.644 238.687 118.532C243.405 110.082 248.487 101.82 252.925 93.2245C256.534 86.2336 263.279 77.8927 272.294 82.0956C279.232 85.329 278.154 94.593 276.72 100.568C275.955 103.76 274.366 106.756 272.605 109.69L272.609 109.688Z" fill="#AF1C19"/>
<path d="M327.227 167.968C327.526 167.311 327.829 166.638 328.147 165.947C331.469 158.738 333.902 151.144 335.377 143.379C335.91 140.579 336.45 137.515 338.654 135.636C341.703 133.036 347.645 133.37 351.424 133.862C353.188 134.092 355.035 134.683 356.101 136.068C357.867 138.362 357.69 143.541 357.76 146.306C358.183 163.111 344.493 177.002 333.348 188.342C331.201 190.524 328.871 192.733 325.898 193.616C322.925 194.5 319.151 193.582 317.848 190.84C316.895 188.829 317.48 186.465 318.235 184.375C319.533 180.78 321.491 177.489 323.716 174.367C325.219 172.256 326.209 170.194 327.224 167.968H327.227Z" fill="#F8A17A"/>
<path d="M314.554 109.688C319.43 117.797 324.915 125.579 330.161 133.465C333.089 137.87 336.055 142.346 337.625 147.361C344.855 147.189 352.107 145.705 359.208 144.388C358.068 135.079 353.005 126.644 348.476 118.532C343.758 110.082 338.677 101.82 334.239 93.2245C330.63 86.2336 323.885 77.8927 314.87 82.0956C307.932 85.329 309.009 94.593 310.444 100.568C311.208 103.76 312.798 106.756 314.559 109.69L314.554 109.688Z" fill="#AF1C19"/>
<path d="M329.706 175.737C327.696 170.553 324.67 166.311 322.932 160.951C320.573 153.679 318.969 143.311 321.675 135.784C324.55 127.792 328.076 121.487 328.291 112.585C328.475 104.963 326.892 97.4551 325.317 90.0327C323.759 82.68 323.052 80.5437 315.633 79.4234C312.99 79.0245 310.377 78.3286 307.741 77.874C303.267 77.104 298.731 76.756 294.185 76.7491C294.125 76.7468 294.068 76.7491 294.008 76.7491C293.948 76.7491 293.891 76.7491 293.831 76.7491C289.285 76.7584 284.749 77.104 280.275 77.8763C277.636 78.331 275.026 79.0268 272.383 79.4258C264.964 80.5461 264.259 82.6823 262.698 90.035C261.123 97.4597 259.541 104.966 259.725 112.587C259.94 121.489 263.465 127.794 266.341 135.787C269.049 143.313 267.442 153.682 265.083 160.953C263.346 166.311 260.32 170.553 258.31 175.74C258.152 176.143 257.999 176.586 258.121 177.008C258.277 177.551 258.819 177.869 259.319 178.122C269.178 183.12 280.229 184.623 291.035 185.398C291.983 185.465 292.908 185.53 293.819 185.588V185.614C293.881 185.609 293.946 185.604 294.01 185.602C294.072 185.607 294.139 185.611 294.201 185.614V185.588C295.112 185.53 296.037 185.465 296.986 185.398C307.794 184.626 318.843 183.123 328.702 178.122C329.201 177.869 329.746 177.549 329.899 177.008C330.019 176.586 329.866 176.143 329.71 175.74L329.706 175.737Z" fill="#DA291C"/>
<path d="M283.546 91.0885C287.915 95.9084 296.314 96.2911 302.191 94.3196C306.192 92.9766 309.019 89.9149 309.103 85.7073C309.196 81.0011 304.944 77.6588 303.871 73.2726C303.262 70.7861 303.321 68.2254 303.386 65.6949C303.46 62.7422 303.481 59.7825 303.627 56.8345C300.616 56.2175 298.173 55.9067 294.978 56.0343C292.332 56.141 289.688 55.8719 287.045 56.0227C286.832 56.0343 286.601 56.0551 286.45 56.192C286.299 56.3288 286.271 56.5469 286.254 56.7463C285.9 60.7335 286.247 64.7694 285.97 68.7636C285.714 72.433 284.868 76.1279 282.652 79.1687C279.954 82.8753 280.618 87.8529 283.546 91.0862V91.0885Z" fill="#F8A17A"/>
<path d="M291.585 14.0939C293.786 12.9852 296.265 12.4517 298.741 12.3497C301.224 12.2407 303.712 12.5538 306.133 13.0896C310.99 14.1334 315.548 16.5387 319.078 19.9738C322.622 23.3834 325.098 27.9018 325.798 32.7379C326.14 35.1617 326.018 37.5833 326.069 39.9654C326.116 42.3359 326.312 44.7551 327.328 46.8658C328.356 48.9719 330.136 50.6791 332.106 52.0545C334.087 53.4439 336.279 54.5572 338.396 55.826C339.438 56.4592 340.559 57.1226 341.331 58.1849C342.108 59.2611 342.275 60.5786 342.292 61.787C342.307 63.014 342.146 64.2434 341.814 65.4263C341.494 66.6185 340.92 67.7226 340.449 68.8081C339.969 69.8959 339.663 71.0301 339.785 72.1922C339.89 73.3496 340.299 74.4769 340.808 75.5531C341.857 77.7056 343.148 79.7676 344.211 81.9456C345.275 84.119 346.095 86.4477 346.284 88.8623C346.503 91.2653 346.19 93.7054 345.373 95.9715C346.135 93.6868 346.389 91.2514 346.114 88.8785C345.87 86.4941 345.007 84.221 343.903 82.0917C342.813 79.9485 341.503 77.9097 340.406 75.7364C339.871 74.6439 339.427 73.4772 339.295 72.2386C339.144 70.9953 339.47 69.7289 339.948 68.6156C340.421 67.486 340.956 66.426 341.245 65.2848C341.554 64.1506 341.704 62.9746 341.685 61.8009C341.666 60.6366 341.492 59.4467 340.82 58.5351C340.153 57.6143 339.104 56.9811 338.062 56.3571C335.966 55.1116 333.755 54.0029 331.716 52.5857C329.687 51.1777 327.809 49.4149 326.697 47.1604C325.617 44.8804 325.445 42.3823 325.404 39.9816C325.366 37.5717 325.495 35.171 325.172 32.826C324.52 28.1221 322.108 23.7337 318.7 20.3403C315.287 16.9307 310.844 14.5138 306.057 13.412C303.674 12.8275 301.217 12.4633 298.75 12.5167C296.291 12.5631 293.817 13.0363 291.59 14.0939H291.585Z" fill="#73B8D4"/>
<path d="M303.698 72.6804C303.222 70.3702 303.272 68.002 303.33 65.6617C303.404 62.709 303.425 59.7493 303.571 56.8013C300.559 56.1843 298.117 55.8735 294.921 56.0011C292.276 56.1078 289.632 55.8387 286.989 55.9895C286.776 56.0011 286.544 56.0219 286.394 56.1588C286.243 56.2956 286.214 56.5137 286.198 56.7131C285.844 60.7003 286.191 64.7362 285.913 68.7304C285.834 69.8739 285.686 71.0174 285.469 72.1469C285.885 72.4995 286.308 72.8382 286.743 73.149C290.007 75.4916 294.41 76.271 298.318 75.1947C300.306 74.6473 302.094 73.7845 303.698 72.6781V72.6804Z" fill="#E5785C"/>
<path d="M314.851 41.003C314.77 37.0924 314.158 33.3928 313.076 30.3265C308.408 17.1008 291.276 14.0553 281.133 23.7368C269.82 34.534 274.584 59.9068 286.799 68.6721C290.064 71.0148 294.467 71.7941 298.374 70.7179C310.2 67.4636 315.107 53.2151 314.851 41.0007V41.003Z" fill="#F8A17A"/>
<path d="M314.833 29.5267C311.157 16.0088 294.295 11.7757 283.461 20.7242C281.733 22.153 280.533 23.8555 279.3 25.6763C278.253 27.2211 276.798 28.3901 275.875 30.088C274.926 31.8322 274.336 33.7597 274.14 35.7243C273.949 37.6356 274.592 39.3079 274.642 41.1449C274.589 39.2267 275.447 37.3039 276.924 36.0305C278.074 35.0401 279.525 34.4602 280.861 33.7249C282.197 32.9896 283.504 32.0015 284.008 30.5936C288.32 36.0769 295.01 37.7562 301.592 39.3404C307.115 40.6671 313.174 44.0466 313.298 50.3046C313.315 51.0978 313.37 51.3182 313.724 52.355C314.111 51.4133 314.252 50.7244 314.369 49.72C314.489 48.6995 314.792 47.6835 315 46.663C315.423 44.5638 315.696 42.4346 315.81 40.3006C316.018 36.3946 315.684 32.6603 314.83 29.529L314.833 29.5267Z" fill="#E5785C"/>
<path d="M317.972 52.7344C319.064 51.9272 319.905 50.7396 320.371 49.4941C321.844 45.2935 321.686 40.6453 321.504 36.1455C321.404 33.6358 321.299 31.0913 320.591 28.7C319.819 26.0905 318.356 23.7734 316.626 21.7879C311.631 16.0542 304.176 13.1432 297.009 13.737C294.129 13.9759 292.013 15.3142 289.485 16.4508C287.016 17.5595 284.117 18.1695 281.521 18.9999C278.526 19.9578 275.443 20.9645 273.065 22.9778C271.328 24.4483 270.063 26.3898 269.16 28.4494C268.075 30.9174 267.969 33.6613 268.28 36.2962C268.536 38.465 268.83 40.7821 269.822 42.807C270.752 44.7043 272.819 45.9429 274.669 46.887C274.394 46.7478 274.633 43.6165 274.626 43.1341C274.583 40.3692 274.74 37.5302 275.632 34.8837C276.492 32.2975 278.199 30.7133 280.419 29.136C281.308 28.5028 282.197 27.8533 282.941 27.0554C283.314 26.6565 284.932 24.8218 284.666 24.2558C285.926 26.9511 287.898 29.7182 290.364 31.4833C295.051 34.8419 300.269 37.2124 305.56 39.2118C305.95 39.358 306.342 39.5064 306.734 39.6572C308.189 40.2231 309.621 40.8703 310.816 41.9256C313.486 44.2822 313.677 47.9052 313.579 51.1711C313.567 51.5283 313.562 51.8947 313.679 52.2357C314.236 53.8384 316.906 53.5276 317.976 52.7367L317.972 52.7344Z" fill="#222323"/>
<path d="M244.221 131.42L243.37 133.375H344.67L343.654 131.179L244.221 131.42Z" fill="#B8D1CE"/>
<path d="M337.682 195.5H250.324L244.064 132.383C243.952 131.251 244.855 130.27 246.007 130.27H341.996C343.151 130.27 344.052 131.251 343.939 132.383L337.68 195.498L337.682 195.5Z" fill="#B8D1CE"/>
<path d="M338.367 197.281H249.639L243.281 134.166C243.166 133.034 244.084 132.053 245.255 132.053H342.75C343.921 132.053 344.839 133.034 344.724 134.166L338.367 197.281Z" fill="white"/>
<path d="M338.314 197.281H249.639V201.111H338.314V197.281Z" fill="#B8D1CE"/>
<path d="M300.066 165.727C300.664 162.481 298.438 159.379 295.093 158.799C291.749 158.218 288.552 160.379 287.954 163.625C287.356 166.871 289.582 169.973 292.927 170.553C296.272 171.134 299.468 168.973 300.066 165.727Z" fill="#B8D1CE"/>
<path d="M283.542 225.209C287.6 224.502 291.639 223.727 295.65 223.08C315.764 219.828 336.739 216.01 355.009 206.864C359.218 204.749 363.599 201.421 365.785 197.266C371.519 186.342 360.073 176.09 348.893 179.191C330.219 184.368 313.998 195.596 296.099 202.91C293.111 204.13 290.102 205.405 287.076 206.69C284.478 207.792 281.869 208.899 279.249 209.98" fill="#102E5B"/>
<path d="M279.248 209.974C276.253 211.21 273.247 212.411 270.23 213.534C267.147 214.682 249.296 218.505 253.271 225.041C254.052 226.324 255.778 226.66 257.303 226.848C266.064 227.917 274.848 226.723 283.545 225.21" fill="#F8A17A"/>
<path d="M263.76 227.28C259.9 227.705 255.861 227.575 252.275 227.777C250.66 227.867 249.044 227.96 247.426 227.946C244.857 227.925 242.297 227.64 239.744 227.357C237.89 227.151 236.033 226.944 234.178 226.738C233.167 226.626 232.113 226.496 231.272 225.942C230.266 225.279 229.747 224.131 229.276 223.045C228.342 220.888 227.151 218.805 226.449 216.557C225.99 215.087 225.495 213.642 226.516 212.276C227.017 211.605 227.713 211.102 228.42 210.638C229.326 210.044 230.273 209.499 231.298 209.133C234.673 207.931 237.806 209.216 240.961 210.392C244.3 211.638 247.62 212.986 251.114 213.765C254.878 214.604 258.748 214.765 262.586 215.001C265.653 215.189 270.418 214.955 272.937 216.961C273.968 217.78 275.492 219.654 275.468 220.995C275.44 222.683 273.308 224.212 271.979 224.947C269.529 226.306 266.695 226.951 263.757 227.276L263.76 227.28Z" fill="#F8A17A"/>
<path d="M281.771 288.818C283.822 292.021 286.432 295.016 288.49 297.869C289.417 299.156 290.347 300.443 291.36 301.666C292.971 303.609 294.787 305.381 296.599 307.149C297.916 308.434 299.233 309.719 300.55 311.004C301.267 311.704 302.024 312.428 302.995 312.725C304.154 313.08 305.404 312.764 306.575 312.449C310.947 311.271 315.096 311.173 315.206 305.776C315.275 302.352 313.956 298.479 310.982 296.54C307.541 294.294 303.786 292.601 300.531 290.068C297.517 287.723 294.988 284.877 292.417 282.101C290.363 279.883 287.598 276.11 284.415 275.437C283.114 275.161 280.655 275.163 279.584 276.01C278.236 277.079 278.325 279.649 278.552 281.117C278.972 283.826 280.208 286.385 281.769 288.82L281.771 288.818Z" fill="#F8A17A"/>
<path d="M250.126 227.877C246.854 227.193 242.743 226.056 240.764 223.438C239.249 221.431 238.878 218.949 239.189 216.481C239.49 214.072 241.658 212.383 244.007 211.546C238.56 207.978 233.142 207.333 227.657 208.695C227.055 208.846 226.46 209.059 225.888 209.328C218.307 212.919 221.947 222.002 227.392 225.676C229.87 227.348 232.803 228.346 235.812 228.584C238.238 228.777 239.88 228.694 242.31 228.684C245.248 228.673 246.775 228.162 250.128 227.879L250.126 227.877Z" fill="#DA291C"/>
<path d="M289.47 299.301C292.051 301.368 295.521 303.792 298.865 303.676C301.427 303.585 303.662 302.328 305.466 300.561C307.228 298.835 307.249 296.14 306.468 293.832C312.73 295.766 316.611 299.492 318.913 304.513C319.166 305.065 319.362 305.652 319.498 306.253C321.298 314.25 311.697 317.113 305.352 315.245C302.464 314.397 299.838 312.782 297.78 310.639C296.121 308.911 295.17 307.61 293.669 305.754C291.857 303.511 291.322 302.029 289.472 299.304L289.47 299.301Z" fill="#DA291C"/>
<path d="M284.226 258.551C285.77 264.254 287.331 270.016 289.136 275.624C289.171 275.736 289.21 275.847 289.25 275.956C290.094 278.28 291.124 280.535 291.937 282.87C292.453 284.357 292.917 285.865 293.254 287.4C293.411 288.122 293.54 288.85 293.622 289.585C293.655 289.882 293.77 290.325 293.686 290.618C293.581 290.989 293.122 291.306 292.78 291.453C292.417 291.606 292.018 291.661 291.624 291.684C290.046 291.768 288.49 291.327 287.001 290.815C286.081 290.499 285.17 290.154 284.277 289.773C283.452 289.425 282.491 289.089 281.746 288.6C281.392 288.368 281.134 287.92 280.876 287.588C280.589 287.219 280.304 286.848 280.025 286.475C279.465 285.726 278.92 284.967 278.388 284.2C275.959 280.69 273.813 277.007 271.753 273.286C269.707 269.596 267.745 265.862 265.66 262.192C255.816 244.861 245.897 226.523 241.961 206.942C241.06 202.424 241.036 197.027 243.039 192.787C248.316 181.646 263.698 184.003 268.127 194.438C275.522 211.867 276.504 231.179 281.691 249.342C282.556 252.374 283.39 255.457 284.229 258.555L284.226 258.551Z" fill="#F8A17A"/>
<path d="M271.449 272.732C269.503 269.204 267.625 265.646 265.662 262.192C255.818 244.861 245.899 226.523 241.963 206.942C241.062 202.424 241.038 197.027 243.041 192.787C248.318 181.646 263.7 184.003 268.129 194.438C275.524 211.867 276.506 231.179 281.692 249.342C282.558 252.374 283.392 255.457 284.231 258.555C284.95 261.216 285.674 263.89 286.425 266.555" fill="#102E5B"/>
<path d="M287.397 46.1401C282.689 46.5947 278.738 45.4697 278.738 45.4697C282.978 48.9629 290.791 45.813 287.397 46.1401Z" fill="#231F20"/>
<path d="M298.317 46.1401C303.026 46.5947 306.976 45.4697 306.976 45.4697C302.736 48.9629 294.923 45.813 298.317 46.1401Z" fill="#231F20"/>
<path d="M288.021 61.1826C288.021 61.1826 293.484 64.7477 299.976 61.1826" stroke="#B72929" stroke-width="1.02188" stroke-miterlimit="10" stroke-linecap="round"/>
</svg>
