<svg width="40" height="41" viewBox="0 0 40 41" fill="none" xmlns="http://www.w3.org/2000/svg">
<mask id="mask0_2504_40493" style="mask-type:alpha" maskUnits="userSpaceOnUse" x="13" y="13" width="14" height="14">
<path d="M13.4347 13.5425C13.1472 13.7972 13.0023 14.1291 13.0023 14.5358L13 14.5381C13 14.9331 13.1449 15.2673 13.4371 15.5361C13.7292 15.8049 14.0915 15.9404 14.5425 15.9404C14.9936 15.9404 15.3629 15.8072 15.655 15.5408C15.9472 15.2743 16.0921 14.9354 16.0921 14.5381C16.0921 14.1408 15.9495 13.8136 15.6644 13.5518C15.3769 13.2901 14.9913 13.1592 14.5425 13.1592C14.0938 13.1592 13.7222 13.2877 13.4347 13.5425Z" fill="#333333"/>
<path d="M13.201 17.4806V26.598H15.856V17.4806H13.201Z" fill="#333333"/>
<path d="M23.7184 26.598H26.3641V21.0191C26.3641 18.5113 25.3521 17.2586 23.3304 17.2586C22.0379 17.2586 21.061 17.8172 20.3949 18.932H20.3622V17.4806H17.7001V26.6003H20.3622V21.3978C20.3622 20.7878 20.5305 20.2853 20.8647 19.8926C21.2012 19.5 21.6219 19.3036 22.1268 19.3036C23.1878 19.3036 23.7184 20.0399 23.7184 21.5123V26.598Z" fill="#333333"/>
</mask>
<g mask="url(#mask0_2504_40493)">
<path d="M8 8.15918H32V32.1592H8V8.15918Z" fill="#1A1A1A"/>
</g>
<rect x="0.5" y="0.65918" width="39" height="39" rx="19.5" stroke="#1A1A1A"/>
</svg>
