<svg width="24" height="25" viewBox="0 0 24 25" fill="none" xmlns="http://www.w3.org/2000/svg">
<mask id="mask0_2871_46602" style="mask-type:alpha" maskUnits="userSpaceOnUse" x="7" y="7" width="9" height="10">
<path d="M8.06063 8.20013C7.88815 8.35299 7.80121 8.55211 7.80121 8.79612L7.7998 8.79752C7.7998 9.03451 7.88675 9.23504 8.06204 9.39631C8.23733 9.55757 8.45468 9.63891 8.72533 9.63891C8.99598 9.63891 9.21754 9.55897 9.39283 9.39911C9.56812 9.23925 9.65507 9.03591 9.65507 8.79752C9.65507 8.55913 9.56953 8.3628 9.39845 8.20574C9.22596 8.04868 8.99457 7.97015 8.72533 7.97015C8.45609 7.97015 8.23312 8.04728 8.06063 8.20013Z" fill="#333333"/>
<path d="M7.9204 10.563V16.0335H9.51343V10.563H7.9204Z" fill="#333333"/>
<path d="M14.2308 16.0335H15.8183V12.6861C15.8183 11.1814 15.2111 10.4298 13.9981 10.4298C13.2226 10.4298 12.6364 10.765 12.2367 11.4339H12.2171V10.563H10.6199V16.0349H12.2171V12.9133C12.2171 12.5473 12.3181 12.2458 12.5186 12.0102C12.7205 11.7746 12.973 11.6568 13.2759 11.6568C13.9125 11.6568 14.2308 12.0986 14.2308 12.982V16.0335Z" fill="#333333"/>
</mask>
<g mask="url(#mask0_2871_46602)">
<path d="M4.7998 4.97015H19.1998V19.3702H4.7998V4.97015Z" fill="#1A1A1A"/>
</g>
<rect x="0.5" y="0.670166" width="23" height="23" rx="11.5" stroke="#1A1A1A"/>
</svg>
