<svg width="32" height="32" viewBox="0 0 32 32" fill="none" xmlns="http://www.w3.org/2000/svg">
<mask id="mask0_3405_50684" style="mask-type:alpha" maskUnits="userSpaceOnUse" x="8" y="8" width="16" height="16">
<path d="M16.7108 9.05263V15.2892H22.9474C23.2526 15.2892 23.5 15.5366 23.5 15.8418C23.5 16.147 23.2526 16.3944 22.9474 16.3944H16.7108V22.9474C16.7108 23.2526 16.4634 23.5 16.1582 23.5C15.853 23.5 15.6056 23.2526 15.6056 22.9474V16.3944H9.05263C8.74742 16.3944 8.5 16.147 8.5 15.8418C8.5 15.5366 8.74742 15.2892 9.05263 15.2892H15.6056V9.05263C15.6056 8.74742 15.853 8.5 16.1582 8.5C16.4634 8.5 16.7108 8.74742 16.7108 9.05263Z" fill="#1A1A1A"/>
</mask>
<g mask="url(#mask0_3405_50684)">
<path d="M6.06512 6.21167H26.0651V26.2117H6.06512V6.21167Z" fill="#E42313"/>
</g>
<rect x="0.5" y="0.5" width="31" height="31" rx="15.5" stroke="#E8E8E8"/>
</svg>
