<svg width="8" height="8" viewBox="0 0 8 8" fill="none" xmlns="http://www.w3.org/2000/svg">
<mask id="mask0_2483_41453" style="mask-type:alpha" maskUnits="userSpaceOnUse" x="1" y="1" width="6" height="6">
<path d="M6.35243 1.97743C6.44355 1.8863 6.44355 1.73857 6.35243 1.64744C6.2613 1.55632 6.11357 1.55632 6.02244 1.64744L3.99993 3.66995L1.97743 1.64744C1.8863 1.55632 1.73857 1.55632 1.64744 1.64744C1.55632 1.73857 1.55632 1.8863 1.64744 1.97743L3.66995 3.99993L1.64744 6.02244C1.55632 6.11357 1.55632 6.2613 1.64744 6.35243C1.73857 6.44355 1.8863 6.44355 1.97743 6.35243L3.99993 4.32992L6.02244 6.35243C6.11357 6.44355 6.2613 6.44355 6.35243 6.35243C6.44355 6.2613 6.44355 6.11357 6.35243 6.02244L4.32992 3.99993L6.35243 1.97743Z" fill="black"/>
</mask>
<g mask="url(#mask0_2483_41453)">
<path d="M0 0H8V8H0V0Z" fill="#333333"/>
</g>
</svg>
