<svg width="20" height="20" viewBox="0 0 20 20" fill="none" xmlns="http://www.w3.org/2000/svg">
<mask id="mask0_1713_24111" style="mask-type:alpha" maskUnits="userSpaceOnUse" x="2" y="2" width="16" height="16">
<path d="M6.74666 2.13043C7.04922 2.13043 7.29449 2.3757 7.29449 2.67826V3.98913H12.7043V2.67826C12.7043 2.3757 12.9495 2.13043 13.2521 2.13043C13.5547 2.13043 13.7999 2.3757 13.7999 2.67826V3.98913H16.0401C16.856 3.98913 17.5173 4.65048 17.5173 5.4663V15.6891C17.5173 16.5049 16.856 17.1663 16.0401 17.1663H3.95862C3.1428 17.1663 2.48145 16.5049 2.48145 15.6891V5.4663C2.48145 4.65048 3.1428 3.98913 3.95862 3.98913H6.19884V2.67826C6.19884 2.3757 6.44411 2.13043 6.74666 2.13043ZM12.7043 5.08478H7.29449V5.93098C7.29449 6.23353 7.04922 6.4788 6.74666 6.4788C6.44411 6.4788 6.19884 6.23353 6.19884 5.93098V5.08478H3.95862C3.74791 5.08478 3.5771 5.25559 3.5771 5.4663V7.70652H16.4217V5.4663C16.4217 5.25559 16.2508 5.08478 16.0401 5.08478H13.7999V5.93098C13.7999 6.23353 13.5547 6.4788 13.2521 6.4788C12.9495 6.4788 12.7043 6.23353 12.7043 5.93098V5.08478ZM16.4217 8.80217H3.5771V15.6891C3.5771 15.8998 3.74791 16.0706 3.95862 16.0706H16.0401C16.2508 16.0706 16.4217 15.8998 16.4217 15.6891V8.80217Z" fill="black"/>
</mask>
<g mask="url(#mask0_1713_24111)">
<path d="M0.608398 0.25708H19.391V19.0397H0.608398V0.25708Z" fill="#1A1A1A"/>
</g>
</svg>
