<svg width="24" height="25" viewBox="0 0 24 25" fill="none" xmlns="http://www.w3.org/2000/svg">
<mask id="mask0_2871_46604" style="mask-type:alpha" maskUnits="userSpaceOnUse" x="8" y="9" width="9" height="7">
<path d="M8.80889 9.37251C9.7849 10.4285 10.8479 11.131 12.1015 11.0637C12.0833 9.46226 13.2711 8.53673 14.9482 9.67541L15.892 9.26594L15.3577 10.0667L16.0869 9.94185L15.3577 10.6178C15.1796 15.1556 11.2643 16.2593 8.39941 14.7644C9.36561 14.7041 10.1243 14.5176 10.5702 14.1418C9.92093 14.0142 9.49041 13.6173 9.21836 13.0213L9.80593 12.9863C9.16087 12.7675 8.78785 12.222 8.63079 11.4199C8.88181 11.4409 9.14264 11.4634 9.25342 11.4732C8.635 10.9501 8.55788 10.2237 8.80889 9.37391V9.37251Z" fill="#333333"/>
</mask>
<g mask="url(#mask0_2871_46604)">
<path d="M4.7998 4.97015H19.1998V19.3702H4.7998V4.97015Z" fill="#1A1A1A"/>
</g>
<rect x="0.5" y="0.670166" width="23" height="23" rx="11.5" stroke="#1A1A1A"/>
</svg>
