<svg width="40" height="41" viewBox="0 0 40 41" fill="none" xmlns="http://www.w3.org/2000/svg">
<mask id="mask0_2504_40496" style="mask-type:alpha" maskUnits="userSpaceOnUse" x="14" y="15" width="13" height="11">
<path d="M14.6825 15.4964C16.3091 17.2563 18.0807 18.4273 20.1702 18.3151C20.1398 15.646 22.1194 14.1035 24.9147 16.0013L26.4876 15.3188L25.5971 16.6533L26.8125 16.4453L25.5971 17.5718C25.3003 25.135 18.7749 26.9744 14 24.4829C15.6103 24.3824 16.8747 24.0716 17.618 23.4452C16.5359 23.2325 15.8183 22.5711 15.3649 21.5778L16.3442 21.5194C15.2691 21.1548 14.6474 20.2456 14.3856 18.9087C14.804 18.9438 15.2387 18.9812 15.4233 18.9975C14.3926 18.1258 14.2641 16.9151 14.6825 15.4988V15.4964Z" fill="#333333"/>
</mask>
<g mask="url(#mask0_2504_40496)">
<path d="M8 8.15918H32V32.1592H8V8.15918Z" fill="#1A1A1A"/>
</g>
<rect x="0.5" y="0.65918" width="39" height="39" rx="19.5" stroke="#1A1A1A"/>
</svg>
