<svg width="40" height="41" viewBox="0 0 40 41" fill="none" xmlns="http://www.w3.org/2000/svg">
<mask id="mask0_2504_40497" style="mask-type:alpha" maskUnits="userSpaceOnUse" x="12" y="15" width="16" height="11">
<path d="M25.4318 15.477C24.2562 15.1592 19.5398 15.1592 19.5398 15.1592C19.5398 15.1592 14.8233 15.1592 13.6477 15.477C12.998 15.6523 12.4885 16.1665 12.3155 16.8186C12 18.0035 12 20.4716 12 20.4716C12 20.4716 12 22.942 12.3155 24.1246C12.4885 24.7767 13.0003 25.2932 13.6477 25.4662C14.8233 25.784 19.5398 25.784 19.5398 25.784C19.5398 25.784 24.2562 25.784 25.4318 25.4662C26.0816 25.2909 26.5911 24.7767 26.764 24.1246C27.0795 22.9397 27.0795 20.4716 27.0795 20.4716C27.0795 20.4716 27.0795 18.0012 26.764 16.8186C26.5911 16.1665 26.0792 15.65 25.4318 15.477ZM17.9972 22.7153V18.2302L21.9401 20.4716L17.9972 22.713V22.7153Z" fill="#333333"/>
</mask>
<g mask="url(#mask0_2504_40497)">
<path d="M8 8.15918H32V32.1592H8V8.15918Z" fill="#1A1A1A"/>
</g>
<rect x="0.5" y="0.65918" width="39" height="39" rx="19.5" stroke="#1A1A1A"/>
</svg>
